<svg width="308" height="58" viewBox="0 0 308 58" fill="none" xmlns="http://www.w3.org/2000/svg">
<path d="M57.9966 37.8633H56.1726C55.9367 37.8633 55.7105 37.9437 55.5438 38.0868C55.377 38.2299 55.2833 38.4239 55.2833 38.6263C55.2833 38.8287 55.377 39.0227 55.5438 39.1658C55.7105 39.3089 55.9367 39.3893 56.1726 39.3893H57.9966C58.2324 39.3893 58.4586 39.3089 58.6254 39.1658C58.7922 39.0227 58.8859 38.8287 58.8859 38.6263C58.8859 38.4239 58.7922 38.2299 58.6254 38.0868C58.4586 37.9437 58.2324 37.8633 57.9966 37.8633ZM65.8776 37.9289H64.0536C63.8178 37.9289 63.5916 38.0093 63.4248 38.1524C63.258 38.2955 63.1643 38.4896 63.1643 38.6919C63.1643 38.8943 63.258 39.0884 63.4248 39.2314C63.5916 39.3745 63.8178 39.4549 64.0536 39.4549H65.8776C66.1135 39.4549 66.3397 39.3745 66.5064 39.2314C66.6732 39.0884 66.7669 38.8943 66.7669 38.6919C66.7669 38.4896 66.6732 38.2955 66.5064 38.1524C66.3397 38.0093 66.1135 37.9289 65.8776 37.9289ZM61.1136 39.6434C60.8777 39.6434 60.6515 39.7238 60.4848 39.8669C60.318 40.01 60.2243 40.204 60.2243 40.4064V41.9713C60.2243 42.1737 60.318 42.3678 60.4848 42.5109C60.6515 42.654 60.8777 42.7344 61.1136 42.7344C61.3494 42.7344 61.5756 42.654 61.7424 42.5109C61.9092 42.3678 62.0029 42.1737 62.0029 41.9713V40.4064C62.0029 40.204 61.9092 40.01 61.7424 39.8669C61.5756 39.7238 61.3494 39.6434 61.1136 39.6434Z" fill="#FF5773"/>
<path d="M90.8906 33.1626C90.7135 35.6105 89.8073 37.5376 88.1719 38.9438C86.5469 40.3501 84.401 41.0532 81.7344 41.0532C78.8177 41.0532 76.5208 40.0741 74.8438 38.1157C73.1771 36.147 72.3438 33.4491 72.3438 30.022V28.6313C72.3438 26.4438 72.7292 24.5168 73.5 22.8501C74.2708 21.1834 75.3698 19.9074 76.7969 19.022C78.2344 18.1261 79.901 17.6782 81.7969 17.6782C84.4219 17.6782 86.5365 18.3813 88.1406 19.7876C89.7448 21.1938 90.6719 23.1678 90.9219 25.7095H86.2344C86.1198 24.2407 85.7083 23.1782 85 22.522C84.3021 21.8553 83.2344 21.522 81.7969 21.522C80.2344 21.522 79.0625 22.0845 78.2812 23.2095C77.5104 24.3241 77.1146 26.0584 77.0938 28.4126V30.1313C77.0938 32.5897 77.4635 34.3866 78.2031 35.522C78.9531 36.6574 80.1302 37.2251 81.7344 37.2251C83.1823 37.2251 84.2604 36.897 84.9688 36.2407C85.6875 35.5741 86.099 34.548 86.2031 33.1626H90.8906ZM92.9688 32.1313C92.9688 30.4543 93.2917 28.9595 93.9375 27.647C94.5833 26.3345 95.5104 25.3188 96.7188 24.6001C97.9375 23.8813 99.349 23.522 100.953 23.522C103.234 23.522 105.094 24.2199 106.531 25.6157C107.979 27.0116 108.786 28.9074 108.953 31.3032L108.984 32.4595C108.984 35.0532 108.26 37.1366 106.812 38.7095C105.365 40.272 103.422 41.0532 100.984 41.0532C98.5469 41.0532 96.599 40.272 95.1406 38.7095C93.6927 37.147 92.9688 35.022 92.9688 32.3345V32.1313ZM97.4844 32.4595C97.4844 34.0636 97.7865 35.2928 98.3906 36.147C98.9948 36.9907 99.8594 37.4126 100.984 37.4126C102.078 37.4126 102.932 36.9959 103.547 36.1626C104.161 35.3188 104.469 33.9751 104.469 32.1313C104.469 30.5584 104.161 29.3397 103.547 28.4751C102.932 27.6105 102.068 27.1782 100.953 27.1782C99.849 27.1782 98.9948 27.6105 98.3906 28.4751C97.7865 29.3293 97.4844 30.6574 97.4844 32.4595ZM121.891 39.022C120.776 40.3761 119.234 41.0532 117.266 41.0532C115.453 41.0532 114.068 40.5324 113.109 39.4907C112.161 38.4491 111.677 36.923 111.656 34.9126V23.8345H116.172V34.7563C116.172 36.5168 116.974 37.397 118.578 37.397C120.109 37.397 121.161 36.8657 121.734 35.8032V23.8345H126.266V40.7407H122.016L121.891 39.022ZM139.172 28.0688C138.557 27.9855 138.016 27.9438 137.547 27.9438C135.839 27.9438 134.719 28.522 134.188 29.6782V40.7407H129.672V23.8345H133.938L134.062 25.8501C134.969 24.298 136.224 23.522 137.828 23.522C138.328 23.522 138.797 23.5897 139.234 23.7251L139.172 28.0688ZM150.516 36.0688C150.516 35.5168 150.24 35.0845 149.688 34.772C149.146 34.4491 148.271 34.1626 147.062 33.9126C143.042 33.0688 141.031 31.3605 141.031 28.7876C141.031 27.2876 141.651 26.0376 142.891 25.0376C144.141 24.0272 145.771 23.522 147.781 23.522C149.927 23.522 151.641 24.0272 152.922 25.0376C154.214 26.048 154.859 27.3605 154.859 28.9751H150.344C150.344 28.3293 150.135 27.798 149.719 27.3813C149.302 26.9543 148.651 26.7407 147.766 26.7407C147.005 26.7407 146.417 26.9126 146 27.2563C145.583 27.6001 145.375 28.0376 145.375 28.5688C145.375 29.0688 145.609 29.4751 146.078 29.7876C146.557 30.0897 147.359 30.3553 148.484 30.5845C149.609 30.8032 150.557 31.0532 151.328 31.3345C153.714 32.2095 154.906 33.7251 154.906 35.8813C154.906 37.423 154.245 38.673 152.922 39.6313C151.599 40.5793 149.891 41.0532 147.797 41.0532C146.38 41.0532 145.12 40.8032 144.016 40.3032C142.922 39.7928 142.062 39.1001 141.438 38.2251C140.812 37.3397 140.5 36.3866 140.5 35.3657H144.781C144.823 36.1678 145.12 36.7824 145.672 37.2095C146.224 37.6366 146.964 37.8501 147.891 37.8501C148.755 37.8501 149.406 37.6886 149.844 37.3657C150.292 37.0324 150.516 36.6001 150.516 36.0688ZM167.625 40.7407C167.417 40.3345 167.266 39.8293 167.172 39.2251C166.078 40.4438 164.656 41.0532 162.906 41.0532C161.25 41.0532 159.875 40.5741 158.781 39.6157C157.698 38.6574 157.156 37.4491 157.156 35.9907C157.156 34.1991 157.818 32.8241 159.141 31.8657C160.474 30.9074 162.396 30.423 164.906 30.4126H166.984V29.4438C166.984 28.6626 166.781 28.0376 166.375 27.5688C165.979 27.1001 165.349 26.8657 164.484 26.8657C163.724 26.8657 163.125 27.048 162.688 27.4126C162.26 27.7772 162.047 28.2772 162.047 28.9126H157.531C157.531 27.9334 157.833 27.0272 158.438 26.1938C159.042 25.3605 159.896 24.7095 161 24.2407C162.104 23.7616 163.344 23.522 164.719 23.522C166.802 23.522 168.453 24.048 169.672 25.1001C170.901 26.1418 171.516 27.6105 171.516 29.5063V36.8345C171.526 38.4386 171.75 39.6522 172.188 40.4751V40.7407H167.625ZM163.891 37.6001C164.557 37.6001 165.172 37.4543 165.734 37.1626C166.297 36.8605 166.714 36.4595 166.984 35.9595V33.0532H165.297C163.036 33.0532 161.833 33.8345 161.688 35.397L161.672 35.6626C161.672 36.2251 161.87 36.6886 162.266 37.0532C162.661 37.4178 163.203 37.6001 163.891 37.6001ZM180.391 19.6782V23.8345H183.281V27.147H180.391V35.5845C180.391 36.2095 180.51 36.6574 180.75 36.9282C180.99 37.1991 181.448 37.3345 182.125 37.3345C182.625 37.3345 183.068 37.298 183.453 37.2251V40.647C182.568 40.9178 181.656 41.0532 180.719 41.0532C177.552 41.0532 175.938 39.4543 175.875 36.2563V27.147H173.406V23.8345H175.875V19.6782H180.391Z" fill="black"/>
<path d="M186.094 40.7407V17.9907H194.062C196.823 17.9907 198.917 18.522 200.344 19.5845C201.771 20.6366 202.484 22.1834 202.484 24.2251C202.484 25.3397 202.198 26.3241 201.625 27.1782C201.052 28.022 200.255 28.6418 199.234 29.0376C200.401 29.3293 201.318 29.9178 201.984 30.8032C202.661 31.6886 203 32.772 203 34.0532C203 36.2407 202.302 37.897 200.906 39.022C199.51 40.147 197.521 40.7199 194.938 40.7407H186.094ZM190.781 30.8345V36.9751H194.797C195.901 36.9751 196.76 36.7147 197.375 36.1938C198 35.6626 198.312 34.9334 198.312 34.0063C198.312 31.923 197.234 30.8657 195.078 30.8345H190.781ZM190.781 27.522H194.25C196.615 27.4803 197.797 26.5376 197.797 24.6938C197.797 23.6626 197.495 22.923 196.891 22.4751C196.297 22.0168 195.354 21.7876 194.062 21.7876H190.781V27.522ZM216.031 40.7407C215.823 40.3345 215.672 39.8293 215.578 39.2251C214.484 40.4438 213.062 41.0532 211.312 41.0532C209.656 41.0532 208.281 40.5741 207.188 39.6157C206.104 38.6574 205.562 37.4491 205.562 35.9907C205.562 34.1991 206.224 32.8241 207.547 31.8657C208.88 30.9074 210.802 30.423 213.312 30.4126H215.391V29.4438C215.391 28.6626 215.188 28.0376 214.781 27.5688C214.385 27.1001 213.755 26.8657 212.891 26.8657C212.13 26.8657 211.531 27.048 211.094 27.4126C210.667 27.7772 210.453 28.2772 210.453 28.9126H205.938C205.938 27.9334 206.24 27.0272 206.844 26.1938C207.448 25.3605 208.302 24.7095 209.406 24.2407C210.51 23.7616 211.75 23.522 213.125 23.522C215.208 23.522 216.859 24.048 218.078 25.1001C219.307 26.1418 219.922 27.6105 219.922 29.5063V36.8345C219.932 38.4386 220.156 39.6522 220.594 40.4751V40.7407H216.031ZM212.297 37.6001C212.964 37.6001 213.578 37.4543 214.141 37.1626C214.703 36.8605 215.12 36.4595 215.391 35.9595V33.0532H213.703C211.443 33.0532 210.24 33.8345 210.094 35.397L210.078 35.6626C210.078 36.2251 210.276 36.6886 210.672 37.0532C211.068 37.4178 211.609 37.6001 212.297 37.6001ZM232.891 28.0688C232.276 27.9855 231.734 27.9438 231.266 27.9438C229.557 27.9438 228.438 28.522 227.906 29.6782V40.7407H223.391V23.8345H227.656L227.781 25.8501C228.688 24.298 229.943 23.522 231.547 23.522C232.047 23.522 232.516 23.5897 232.953 23.7251L232.891 28.0688ZM239.312 23.8345L239.453 25.7251C240.651 24.2563 242.271 23.522 244.312 23.522C246.49 23.522 247.984 24.3813 248.797 26.1001C249.984 24.3813 251.677 23.522 253.875 23.522C255.708 23.522 257.073 24.0584 257.969 25.1313C258.865 26.1938 259.312 27.798 259.312 29.9438V40.7407H254.781V29.9595C254.781 29.0011 254.594 28.3032 254.219 27.8657C253.844 27.4178 253.182 27.1938 252.234 27.1938C250.88 27.1938 249.943 27.8397 249.422 29.1313L249.438 40.7407H244.922V29.9751C244.922 28.9959 244.729 28.2876 244.344 27.8501C243.958 27.4126 243.302 27.1938 242.375 27.1938C241.094 27.1938 240.167 27.7251 239.594 28.7876V40.7407H235.078V23.8345H239.312ZM272.594 40.7407C272.385 40.3345 272.234 39.8293 272.141 39.2251C271.047 40.4438 269.625 41.0532 267.875 41.0532C266.219 41.0532 264.844 40.5741 263.75 39.6157C262.667 38.6574 262.125 37.4491 262.125 35.9907C262.125 34.1991 262.786 32.8241 264.109 31.8657C265.443 30.9074 267.365 30.423 269.875 30.4126H271.953V29.4438C271.953 28.6626 271.75 28.0376 271.344 27.5688C270.948 27.1001 270.318 26.8657 269.453 26.8657C268.693 26.8657 268.094 27.048 267.656 27.4126C267.229 27.7772 267.016 28.2772 267.016 28.9126H262.5C262.5 27.9334 262.802 27.0272 263.406 26.1938C264.01 25.3605 264.865 24.7095 265.969 24.2407C267.073 23.7616 268.312 23.522 269.688 23.522C271.771 23.522 273.422 24.048 274.641 25.1001C275.87 26.1418 276.484 27.6105 276.484 29.5063V36.8345C276.495 38.4386 276.719 39.6522 277.156 40.4751V40.7407H272.594ZM268.859 37.6001C269.526 37.6001 270.141 37.4543 270.703 37.1626C271.266 36.8605 271.682 36.4595 271.953 35.9595V33.0532H270.266C268.005 33.0532 266.802 33.8345 266.656 35.397L266.641 35.6626C266.641 36.2251 266.839 36.6886 267.234 37.0532C267.63 37.4178 268.172 37.6001 268.859 37.6001ZM284.734 23.8345V41.6626C284.734 43.5272 284.24 44.9751 283.25 46.0063C282.26 47.048 280.833 47.5688 278.969 47.5688C278.188 47.5688 277.443 47.4803 276.734 47.3032V43.7251C277.276 43.8188 277.75 43.8657 278.156 43.8657C279.521 43.8657 280.203 43.1418 280.203 41.6938V23.8345H284.734ZM279.844 19.4595C279.844 18.7824 280.068 18.2251 280.516 17.7876C280.974 17.3501 281.594 17.1313 282.375 17.1313C283.156 17.1313 283.771 17.3501 284.219 17.7876C284.677 18.2251 284.906 18.7824 284.906 19.4595C284.906 20.147 284.672 20.7095 284.203 21.147C283.745 21.5845 283.135 21.8032 282.375 21.8032C281.615 21.8032 281 21.5845 280.531 21.147C280.073 20.7095 279.844 20.147 279.844 19.4595ZM298.062 40.7407C297.854 40.3345 297.703 39.8293 297.609 39.2251C296.516 40.4438 295.094 41.0532 293.344 41.0532C291.688 41.0532 290.312 40.5741 289.219 39.6157C288.135 38.6574 287.594 37.4491 287.594 35.9907C287.594 34.1991 288.255 32.8241 289.578 31.8657C290.911 30.9074 292.833 30.423 295.344 30.4126H297.422V29.4438C297.422 28.6626 297.219 28.0376 296.812 27.5688C296.417 27.1001 295.786 26.8657 294.922 26.8657C294.161 26.8657 293.562 27.048 293.125 27.4126C292.698 27.7772 292.484 28.2772 292.484 28.9126H287.969C287.969 27.9334 288.271 27.0272 288.875 26.1938C289.479 25.3605 290.333 24.7095 291.438 24.2407C292.542 23.7616 293.781 23.522 295.156 23.522C297.24 23.522 298.891 24.048 300.109 25.1001C301.339 26.1418 301.953 27.6105 301.953 29.5063V36.8345C301.964 38.4386 302.188 39.6522 302.625 40.4751V40.7407H298.062ZM294.328 37.6001C294.995 37.6001 295.609 37.4543 296.172 37.1626C296.734 36.8605 297.151 36.4595 297.422 35.9595V33.0532H295.734C293.474 33.0532 292.271 33.8345 292.125 35.397L292.109 35.6626C292.109 36.2251 292.307 36.6886 292.703 37.0532C293.099 37.4178 293.641 37.6001 294.328 37.6001Z" fill="#FF5773"/>
<path d="M61.1142 36.3373C61.3492 36.3373 61.5745 36.2355 61.7406 36.0542C61.9067 35.8728 62 35.6269 62 35.3705V24.1741C62 23.7709 61.7706 23.4103 61.4251 23.2682L36.1317 12.9505C35.9319 12.8684 35.7115 12.8684 35.5117 12.9505L10.2192 23.2691C10.0857 23.2099 9.94096 23.1872 9.79757 23.2028C9.65417 23.2185 9.51644 23.2721 9.39632 23.359C9.27621 23.4459 9.17734 23.5635 9.10829 23.7016C9.03924 23.8397 9.0021 23.994 9.00009 24.1513C8.99808 24.3086 9.03126 24.464 9.09675 24.6042C9.16224 24.7443 9.25807 24.8648 9.37591 24.9554C9.49376 25.0459 9.63006 25.1037 9.77301 25.1237C9.91595 25.1438 10.0612 25.1254 10.1962 25.0703L18.7587 28.8611V43.7836C18.7587 47.6479 27.6082 49.4074 35.8306 49.4074C44.053 49.4074 52.9025 47.6479 52.9025 43.7836V29.0883L57.4588 27.1344C57.5671 27.0882 57.6661 27.019 57.7499 26.931C57.8337 26.843 57.9008 26.7377 57.9473 26.6213C57.9938 26.5049 58.0188 26.3796 58.0208 26.2527C58.0229 26.1257 58.0019 25.9995 57.9592 25.8814C57.9169 25.7631 57.8535 25.6552 57.7729 25.5637C57.6922 25.4721 57.5958 25.3989 57.4892 25.3482C57.3825 25.2974 57.2677 25.2702 57.1514 25.2679C57.0351 25.2657 56.9195 25.2886 56.8113 25.3352L35.8262 34.3303L12.9695 24.2108L35.8217 14.887L60.2294 24.845V35.3705C60.2292 35.4975 60.2519 35.6232 60.2963 35.7406C60.3406 35.8579 60.4058 35.9646 60.488 36.0544C60.5702 36.1442 60.6678 36.2154 60.7753 36.264C60.8828 36.3125 60.9979 36.3374 61.1142 36.3373ZM35.8217 36.3373C35.9316 36.3373 36.0414 36.3151 36.1459 36.2706L51.1319 29.8463V43.7826C51.1319 45.0356 45.7315 47.4729 35.8315 47.4729C25.9315 47.4729 20.5311 45.0356 20.5311 43.7826V29.6452L35.4887 36.2667C35.595 36.3141 35.7084 36.3373 35.8217 36.3373Z" fill="#FF5773"/>
</svg>
